<mxfile host="Electron" agent="Mozilla/5.0 (Windows NT 10.0; Win64; x64) AppleWebKit/537.36 (KHTML, like Gecko) draw.io/24.7.17 Chrome/128.0.6613.36 Electron/32.0.1 Safari/537.36" version="24.7.17">
  <diagram name="PÃ¡gina-1" id="HAv8hkUHJHj6xx4CtQAC">
    <mxGraphModel dx="1596" dy="830" grid="1" gridSize="10" guides="1" tooltips="1" connect="1" arrows="1" fold="1" page="1" pageScale="1" pageWidth="1920" pageHeight="1200" math="0" shadow="0">
      <root>
        <mxCell id="0" />
        <mxCell id="1" parent="0" />
        <mxCell id="0ffvbY0lkU3wHb5IV4rg-1" value="PIEZA" style="whiteSpace=wrap;html=1;align=center;" parent="1" vertex="1">
          <mxGeometry x="240" y="120" width="60" height="40" as="geometry" />
        </mxCell>
        <mxCell id="0ffvbY0lkU3wHb5IV4rg-2" value="&lt;u&gt;codPieza&lt;/u&gt;" style="ellipse;whiteSpace=wrap;html=1;align=center;" parent="1" vertex="1">
          <mxGeometry x="100" y="200" width="100" height="40" as="geometry" />
        </mxCell>
        <mxCell id="0ffvbY0lkU3wHb5IV4rg-3" value="descripPieza" style="ellipse;whiteSpace=wrap;html=1;align=center;" parent="1" vertex="1">
          <mxGeometry x="220" y="200" width="100" height="40" as="geometry" />
        </mxCell>
        <mxCell id="0ffvbY0lkU3wHb5IV4rg-4" value="precio" style="ellipse;whiteSpace=wrap;html=1;align=center;" parent="1" vertex="1">
          <mxGeometry x="340" y="200" width="100" height="40" as="geometry" />
        </mxCell>
        <mxCell id="0ffvbY0lkU3wHb5IV4rg-5" value="Componer" style="shape=rhombus;perimeter=rhombusPerimeter;whiteSpace=wrap;html=1;align=center;" parent="1" vertex="1">
          <mxGeometry x="90" y="50" width="120" height="60" as="geometry" />
        </mxCell>
        <mxCell id="0ffvbY0lkU3wHb5IV4rg-6" value="0 : 1" style="endArrow=none;html=1;rounded=0;exitX=0.5;exitY=0;exitDx=0;exitDy=0;entryX=1;entryY=0.5;entryDx=0;entryDy=0;edgeStyle=orthogonalEdgeStyle;" parent="1" source="0ffvbY0lkU3wHb5IV4rg-1" target="0ffvbY0lkU3wHb5IV4rg-5" edge="1">
          <mxGeometry x="0.4002" y="-10" relative="1" as="geometry">
            <mxPoint x="440" y="200" as="sourcePoint" />
            <mxPoint x="600" y="200" as="targetPoint" />
            <mxPoint as="offset" />
          </mxGeometry>
        </mxCell>
        <mxCell id="0ffvbY0lkU3wHb5IV4rg-7" value="2 : M" style="endArrow=none;html=1;rounded=0;exitX=0;exitY=0.5;exitDx=0;exitDy=0;entryX=0.5;entryY=1;entryDx=0;entryDy=0;edgeStyle=orthogonalEdgeStyle;" parent="1" source="0ffvbY0lkU3wHb5IV4rg-1" target="0ffvbY0lkU3wHb5IV4rg-5" edge="1">
          <mxGeometry x="-0.3332" y="-10" relative="1" as="geometry">
            <mxPoint x="290" y="130" as="sourcePoint" />
            <mxPoint x="240" y="90" as="targetPoint" />
            <mxPoint as="offset" />
          </mxGeometry>
        </mxCell>
        <mxCell id="0ffvbY0lkU3wHb5IV4rg-12" value="una pieza puede componer a otra pieza o a ninguna" style="text;html=1;align=left;verticalAlign=middle;whiteSpace=wrap;rounded=0;" parent="1" vertex="1">
          <mxGeometry x="220" y="30" width="150" height="30" as="geometry" />
        </mxCell>
        <mxCell id="0ffvbY0lkU3wHb5IV4rg-13" value="una pieza puede estar compuesta por varias piezas" style="text;html=1;align=right;verticalAlign=middle;whiteSpace=wrap;rounded=0;" parent="1" vertex="1">
          <mxGeometry x="70" y="140" width="160" height="30" as="geometry" />
        </mxCell>
        <mxCell id="0ffvbY0lkU3wHb5IV4rg-14" value="" style="endArrow=none;html=1;rounded=0;exitX=0.5;exitY=0;exitDx=0;exitDy=0;entryX=0.5;entryY=1;entryDx=0;entryDy=0;" parent="1" source="0ffvbY0lkU3wHb5IV4rg-3" target="0ffvbY0lkU3wHb5IV4rg-1" edge="1">
          <mxGeometry width="50" height="50" relative="1" as="geometry">
            <mxPoint x="410" y="120" as="sourcePoint" />
            <mxPoint x="460" y="70" as="targetPoint" />
          </mxGeometry>
        </mxCell>
        <mxCell id="0ffvbY0lkU3wHb5IV4rg-15" value="" style="endArrow=none;html=1;rounded=0;exitX=0;exitY=0;exitDx=0;exitDy=0;entryX=0.5;entryY=1;entryDx=0;entryDy=0;" parent="1" source="0ffvbY0lkU3wHb5IV4rg-4" target="0ffvbY0lkU3wHb5IV4rg-1" edge="1">
          <mxGeometry width="50" height="50" relative="1" as="geometry">
            <mxPoint x="280" y="230" as="sourcePoint" />
            <mxPoint x="280" y="170" as="targetPoint" />
          </mxGeometry>
        </mxCell>
        <mxCell id="0ffvbY0lkU3wHb5IV4rg-16" value="" style="endArrow=none;html=1;rounded=0;exitX=1;exitY=0;exitDx=0;exitDy=0;entryX=0.5;entryY=1;entryDx=0;entryDy=0;" parent="1" source="0ffvbY0lkU3wHb5IV4rg-2" target="0ffvbY0lkU3wHb5IV4rg-1" edge="1">
          <mxGeometry width="50" height="50" relative="1" as="geometry">
            <mxPoint x="365" y="236" as="sourcePoint" />
            <mxPoint x="280" y="170" as="targetPoint" />
          </mxGeometry>
        </mxCell>
        <mxCell id="0ffvbY0lkU3wHb5IV4rg-17" value="ALMACEN" style="whiteSpace=wrap;html=1;align=center;" parent="1" vertex="1">
          <mxGeometry x="580" y="120" width="80" height="40" as="geometry" />
        </mxCell>
        <mxCell id="0ffvbY0lkU3wHb5IV4rg-18" value="&lt;u&gt;numero&lt;/u&gt;" style="ellipse;whiteSpace=wrap;html=1;align=center;" parent="1" vertex="1">
          <mxGeometry x="450" y="40" width="100" height="40" as="geometry" />
        </mxCell>
        <mxCell id="0ffvbY0lkU3wHb5IV4rg-19" value="descripcion" style="ellipse;whiteSpace=wrap;html=1;align=center;" parent="1" vertex="1">
          <mxGeometry x="570" y="40" width="100" height="40" as="geometry" />
        </mxCell>
        <mxCell id="0ffvbY0lkU3wHb5IV4rg-20" value="direccion" style="ellipse;whiteSpace=wrap;html=1;align=center;" parent="1" vertex="1">
          <mxGeometry x="690" y="40" width="100" height="40" as="geometry" />
        </mxCell>
        <mxCell id="0ffvbY0lkU3wHb5IV4rg-21" value="ESTANTERIA" style="shape=ext;margin=3;double=1;whiteSpace=wrap;html=1;align=center;" parent="1" vertex="1">
          <mxGeometry x="570" y="200" width="100" height="40" as="geometry" />
        </mxCell>
        <mxCell id="0ffvbY0lkU3wHb5IV4rg-22" value="" style="endArrow=none;html=1;rounded=0;exitX=0.5;exitY=1;exitDx=0;exitDy=0;entryX=0.5;entryY=0;entryDx=0;entryDy=0;" parent="1" source="0ffvbY0lkU3wHb5IV4rg-17" target="0ffvbY0lkU3wHb5IV4rg-21" edge="1">
          <mxGeometry width="50" height="50" relative="1" as="geometry">
            <mxPoint x="580" y="70" as="sourcePoint" />
            <mxPoint x="630" y="20" as="targetPoint" />
          </mxGeometry>
        </mxCell>
        <mxCell id="0ffvbY0lkU3wHb5IV4rg-23" value="&lt;u&gt;codEstanteria&lt;/u&gt;" style="ellipse;whiteSpace=wrap;html=1;align=center;" parent="1" vertex="1">
          <mxGeometry x="570" y="280" width="100" height="40" as="geometry" />
        </mxCell>
        <mxCell id="0ffvbY0lkU3wHb5IV4rg-24" value="" style="endArrow=none;html=1;rounded=0;entryX=0.5;entryY=0;entryDx=0;entryDy=0;exitX=1;exitY=1;exitDx=0;exitDy=0;" parent="1" source="0ffvbY0lkU3wHb5IV4rg-18" target="0ffvbY0lkU3wHb5IV4rg-17" edge="1">
          <mxGeometry width="50" height="50" relative="1" as="geometry">
            <mxPoint x="580" y="70" as="sourcePoint" />
            <mxPoint x="630" y="20" as="targetPoint" />
          </mxGeometry>
        </mxCell>
        <mxCell id="0ffvbY0lkU3wHb5IV4rg-25" value="" style="endArrow=none;html=1;rounded=0;entryX=0.5;entryY=0;entryDx=0;entryDy=0;exitX=0;exitY=1;exitDx=0;exitDy=0;" parent="1" source="0ffvbY0lkU3wHb5IV4rg-20" target="0ffvbY0lkU3wHb5IV4rg-17" edge="1">
          <mxGeometry width="50" height="50" relative="1" as="geometry">
            <mxPoint x="680" y="90" as="sourcePoint" />
            <mxPoint x="630" y="130" as="targetPoint" />
          </mxGeometry>
        </mxCell>
        <mxCell id="0ffvbY0lkU3wHb5IV4rg-26" value="" style="endArrow=none;html=1;rounded=0;entryX=0.5;entryY=0;entryDx=0;entryDy=0;exitX=0.5;exitY=1;exitDx=0;exitDy=0;" parent="1" source="0ffvbY0lkU3wHb5IV4rg-19" target="0ffvbY0lkU3wHb5IV4rg-17" edge="1">
          <mxGeometry width="50" height="50" relative="1" as="geometry">
            <mxPoint x="555" y="94" as="sourcePoint" />
            <mxPoint x="640" y="140" as="targetPoint" />
          </mxGeometry>
        </mxCell>
        <mxCell id="0ffvbY0lkU3wHb5IV4rg-27" value="" style="endArrow=none;html=1;rounded=0;entryX=0.5;entryY=0;entryDx=0;entryDy=0;exitX=0.5;exitY=1;exitDx=0;exitDy=0;" parent="1" source="0ffvbY0lkU3wHb5IV4rg-21" target="0ffvbY0lkU3wHb5IV4rg-23" edge="1">
          <mxGeometry width="50" height="50" relative="1" as="geometry">
            <mxPoint x="630" y="90" as="sourcePoint" />
            <mxPoint x="630" y="130" as="targetPoint" />
          </mxGeometry>
        </mxCell>
        <mxCell id="0ffvbY0lkU3wHb5IV4rg-28" value="Contener" style="shape=rhombus;perimeter=rhombusPerimeter;whiteSpace=wrap;html=1;align=center;" parent="1" vertex="1">
          <mxGeometry x="380" y="110" width="120" height="60" as="geometry" />
        </mxCell>
        <mxCell id="0ffvbY0lkU3wHb5IV4rg-29" value="1 : 1" style="endArrow=none;html=1;rounded=0;exitX=1;exitY=0.5;exitDx=0;exitDy=0;entryX=0;entryY=0.5;entryDx=0;entryDy=0;" parent="1" source="0ffvbY0lkU3wHb5IV4rg-28" target="0ffvbY0lkU3wHb5IV4rg-17" edge="1">
          <mxGeometry y="10" width="50" height="50" relative="1" as="geometry">
            <mxPoint x="540" y="90" as="sourcePoint" />
            <mxPoint x="590" y="40" as="targetPoint" />
            <mxPoint as="offset" />
          </mxGeometry>
        </mxCell>
        <mxCell id="0ffvbY0lkU3wHb5IV4rg-30" value="0 : M" style="endArrow=none;html=1;rounded=0;exitX=0;exitY=0.5;exitDx=0;exitDy=0;entryX=1;entryY=0.5;entryDx=0;entryDy=0;" parent="1" source="0ffvbY0lkU3wHb5IV4rg-28" target="0ffvbY0lkU3wHb5IV4rg-1" edge="1">
          <mxGeometry y="-10" width="50" height="50" relative="1" as="geometry">
            <mxPoint x="510" y="150" as="sourcePoint" />
            <mxPoint x="590" y="150" as="targetPoint" />
            <mxPoint as="offset" />
          </mxGeometry>
        </mxCell>
        <mxCell id="JB4vHJLw0HKybT0yfv0A-4" value="PIEZA" style="whiteSpace=wrap;html=1;align=center;" parent="1" vertex="1">
          <mxGeometry x="230" y="620" width="60" height="40" as="geometry" />
        </mxCell>
        <mxCell id="JB4vHJLw0HKybT0yfv0A-5" value="&lt;u&gt;modelo&lt;/u&gt;" style="ellipse;whiteSpace=wrap;html=1;align=center;" parent="1" vertex="1">
          <mxGeometry x="90" y="700" width="100" height="40" as="geometry" />
        </mxCell>
        <mxCell id="JB4vHJLw0HKybT0yfv0A-7" value="precio" style="ellipse;whiteSpace=wrap;html=1;align=center;" parent="1" vertex="1">
          <mxGeometry x="330" y="700" width="100" height="40" as="geometry" />
        </mxCell>
        <mxCell id="JB4vHJLw0HKybT0yfv0A-8" value="Componer" style="shape=rhombus;perimeter=rhombusPerimeter;whiteSpace=wrap;html=1;align=center;" parent="1" vertex="1">
          <mxGeometry x="80" y="550" width="120" height="60" as="geometry" />
        </mxCell>
        <mxCell id="JB4vHJLw0HKybT0yfv0A-9" value="2 , M" style="endArrow=none;html=1;rounded=0;exitX=0.5;exitY=0;exitDx=0;exitDy=0;entryX=1;entryY=0.5;entryDx=0;entryDy=0;edgeStyle=orthogonalEdgeStyle;" parent="1" source="JB4vHJLw0HKybT0yfv0A-4" target="JB4vHJLw0HKybT0yfv0A-8" edge="1">
          <mxGeometry x="0.4002" y="-10" relative="1" as="geometry">
            <mxPoint x="430" y="700" as="sourcePoint" />
            <mxPoint x="590" y="700" as="targetPoint" />
            <mxPoint as="offset" />
          </mxGeometry>
        </mxCell>
        <mxCell id="JB4vHJLw0HKybT0yfv0A-10" value="0 , M" style="endArrow=none;html=1;rounded=0;exitX=0;exitY=0.5;exitDx=0;exitDy=0;entryX=0.5;entryY=1;entryDx=0;entryDy=0;edgeStyle=orthogonalEdgeStyle;" parent="1" source="JB4vHJLw0HKybT0yfv0A-4" target="JB4vHJLw0HKybT0yfv0A-8" edge="1">
          <mxGeometry x="-0.3332" y="-10" relative="1" as="geometry">
            <mxPoint x="280" y="630" as="sourcePoint" />
            <mxPoint x="230" y="590" as="targetPoint" />
            <mxPoint as="offset" />
          </mxGeometry>
        </mxCell>
        <mxCell id="JB4vHJLw0HKybT0yfv0A-11" value="una pieza puede componer a otra pieza o a ninguna" style="text;html=1;align=center;verticalAlign=middle;whiteSpace=wrap;rounded=0;" parent="1" vertex="1">
          <mxGeometry x="170" y="520" width="110" height="30" as="geometry" />
        </mxCell>
        <mxCell id="JB4vHJLw0HKybT0yfv0A-12" value="una pieza puede estar compuesta por varias piezas" style="text;html=1;align=right;verticalAlign=middle;whiteSpace=wrap;rounded=0;" parent="1" vertex="1">
          <mxGeometry x="70" y="650" width="160" height="30" as="geometry" />
        </mxCell>
        <mxCell id="JB4vHJLw0HKybT0yfv0A-14" value="" style="endArrow=none;html=1;rounded=0;exitX=0;exitY=0;exitDx=0;exitDy=0;entryX=0.5;entryY=1;entryDx=0;entryDy=0;" parent="1" source="JB4vHJLw0HKybT0yfv0A-7" target="JB4vHJLw0HKybT0yfv0A-4" edge="1">
          <mxGeometry width="50" height="50" relative="1" as="geometry">
            <mxPoint x="270" y="730" as="sourcePoint" />
            <mxPoint x="270" y="670" as="targetPoint" />
          </mxGeometry>
        </mxCell>
        <mxCell id="JB4vHJLw0HKybT0yfv0A-15" value="" style="endArrow=none;html=1;rounded=0;exitX=1;exitY=0;exitDx=0;exitDy=0;entryX=0.5;entryY=1;entryDx=0;entryDy=0;" parent="1" source="JB4vHJLw0HKybT0yfv0A-5" target="JB4vHJLw0HKybT0yfv0A-4" edge="1">
          <mxGeometry width="50" height="50" relative="1" as="geometry">
            <mxPoint x="355" y="736" as="sourcePoint" />
            <mxPoint x="270" y="670" as="targetPoint" />
          </mxGeometry>
        </mxCell>
        <mxCell id="JB4vHJLw0HKybT0yfv0A-16" value="ALMACEN" style="whiteSpace=wrap;html=1;align=center;" parent="1" vertex="1">
          <mxGeometry x="570" y="600" width="80" height="40" as="geometry" />
        </mxCell>
        <mxCell id="JB4vHJLw0HKybT0yfv0A-17" value="&lt;u&gt;numero&lt;/u&gt;" style="ellipse;whiteSpace=wrap;html=1;align=center;" parent="1" vertex="1">
          <mxGeometry x="440" y="540" width="100" height="40" as="geometry" />
        </mxCell>
        <mxCell id="JB4vHJLw0HKybT0yfv0A-18" value="descripcion" style="ellipse;whiteSpace=wrap;html=1;align=center;" parent="1" vertex="1">
          <mxGeometry x="560" y="540" width="100" height="40" as="geometry" />
        </mxCell>
        <mxCell id="JB4vHJLw0HKybT0yfv0A-19" value="direccion" style="ellipse;whiteSpace=wrap;html=1;align=center;" parent="1" vertex="1">
          <mxGeometry x="680" y="540" width="100" height="40" as="geometry" />
        </mxCell>
        <mxCell id="JB4vHJLw0HKybT0yfv0A-20" value="ESTANTERIA" style="shape=ext;margin=3;double=1;whiteSpace=wrap;html=1;align=center;" parent="1" vertex="1">
          <mxGeometry x="560" y="760" width="100" height="40" as="geometry" />
        </mxCell>
        <mxCell id="JB4vHJLw0HKybT0yfv0A-22" value="&lt;u&gt;idEstanteria&lt;/u&gt;" style="ellipse;whiteSpace=wrap;html=1;align=center;" parent="1" vertex="1">
          <mxGeometry x="500" y="840" width="100" height="40" as="geometry" />
        </mxCell>
        <mxCell id="JB4vHJLw0HKybT0yfv0A-23" value="" style="endArrow=none;html=1;rounded=0;entryX=0.5;entryY=0;entryDx=0;entryDy=0;exitX=1;exitY=1;exitDx=0;exitDy=0;" parent="1" source="JB4vHJLw0HKybT0yfv0A-17" target="JB4vHJLw0HKybT0yfv0A-16" edge="1">
          <mxGeometry width="50" height="50" relative="1" as="geometry">
            <mxPoint x="570" y="550" as="sourcePoint" />
            <mxPoint x="620" y="500" as="targetPoint" />
          </mxGeometry>
        </mxCell>
        <mxCell id="JB4vHJLw0HKybT0yfv0A-24" value="" style="endArrow=none;html=1;rounded=0;entryX=0.5;entryY=0;entryDx=0;entryDy=0;exitX=0;exitY=1;exitDx=0;exitDy=0;" parent="1" source="JB4vHJLw0HKybT0yfv0A-19" target="JB4vHJLw0HKybT0yfv0A-16" edge="1">
          <mxGeometry width="50" height="50" relative="1" as="geometry">
            <mxPoint x="670" y="570" as="sourcePoint" />
            <mxPoint x="620" y="610" as="targetPoint" />
          </mxGeometry>
        </mxCell>
        <mxCell id="JB4vHJLw0HKybT0yfv0A-25" value="" style="endArrow=none;html=1;rounded=0;entryX=0.5;entryY=0;entryDx=0;entryDy=0;exitX=0.5;exitY=1;exitDx=0;exitDy=0;" parent="1" source="JB4vHJLw0HKybT0yfv0A-18" target="JB4vHJLw0HKybT0yfv0A-16" edge="1">
          <mxGeometry width="50" height="50" relative="1" as="geometry">
            <mxPoint x="545" y="574" as="sourcePoint" />
            <mxPoint x="630" y="620" as="targetPoint" />
          </mxGeometry>
        </mxCell>
        <mxCell id="JB4vHJLw0HKybT0yfv0A-26" value="" style="endArrow=none;html=1;rounded=0;entryX=0.5;entryY=0;entryDx=0;entryDy=0;exitX=0.5;exitY=1;exitDx=0;exitDy=0;" parent="1" source="JB4vHJLw0HKybT0yfv0A-20" target="JB4vHJLw0HKybT0yfv0A-22" edge="1">
          <mxGeometry width="50" height="50" relative="1" as="geometry">
            <mxPoint x="620" y="650" as="sourcePoint" />
            <mxPoint x="620" y="690" as="targetPoint" />
          </mxGeometry>
        </mxCell>
        <mxCell id="JB4vHJLw0HKybT0yfv0A-27" value="Almacenar" style="shape=rhombus;perimeter=rhombusPerimeter;whiteSpace=wrap;html=1;align=center;" parent="1" vertex="1">
          <mxGeometry x="370" y="610" width="120" height="60" as="geometry" />
        </mxCell>
        <mxCell id="JB4vHJLw0HKybT0yfv0A-28" value="0 , M" style="endArrow=none;html=1;rounded=0;exitX=1;exitY=0.5;exitDx=0;exitDy=0;entryX=0;entryY=0.5;entryDx=0;entryDy=0;edgeStyle=orthogonalEdgeStyle;" parent="1" source="JB4vHJLw0HKybT0yfv0A-27" target="JB4vHJLw0HKybT0yfv0A-20" edge="1">
          <mxGeometry x="-0.0667" width="50" height="50" relative="1" as="geometry">
            <mxPoint x="530" y="590" as="sourcePoint" />
            <mxPoint x="580" y="540" as="targetPoint" />
            <mxPoint as="offset" />
            <Array as="points">
              <mxPoint x="520" y="640" />
              <mxPoint x="520" y="780" />
            </Array>
          </mxGeometry>
        </mxCell>
        <mxCell id="JB4vHJLw0HKybT0yfv0A-29" value="0 , M" style="endArrow=none;html=1;rounded=0;exitX=0;exitY=0.5;exitDx=0;exitDy=0;entryX=1;entryY=0.5;entryDx=0;entryDy=0;" parent="1" source="JB4vHJLw0HKybT0yfv0A-27" target="JB4vHJLw0HKybT0yfv0A-4" edge="1">
          <mxGeometry y="-10" width="50" height="50" relative="1" as="geometry">
            <mxPoint x="500" y="650" as="sourcePoint" />
            <mxPoint x="580" y="650" as="targetPoint" />
            <mxPoint as="offset" />
          </mxGeometry>
        </mxCell>
        <mxCell id="JB4vHJLw0HKybT0yfv0A-30" value="&lt;u&gt;tipo&lt;/u&gt;" style="ellipse;whiteSpace=wrap;html=1;align=center;" parent="1" vertex="1">
          <mxGeometry x="210" y="700" width="100" height="40" as="geometry" />
        </mxCell>
        <mxCell id="JB4vHJLw0HKybT0yfv0A-31" value="" style="endArrow=none;html=1;rounded=0;exitX=0.5;exitY=0;exitDx=0;exitDy=0;entryX=0.5;entryY=1;entryDx=0;entryDy=0;" parent="1" source="JB4vHJLw0HKybT0yfv0A-30" target="JB4vHJLw0HKybT0yfv0A-4" edge="1">
          <mxGeometry width="50" height="50" relative="1" as="geometry">
            <mxPoint x="390" y="720" as="sourcePoint" />
            <mxPoint x="440" y="670" as="targetPoint" />
          </mxGeometry>
        </mxCell>
        <mxCell id="JB4vHJLw0HKybT0yfv0A-34" value="&lt;u&gt;tipo&lt;/u&gt;" style="ellipse;whiteSpace=wrap;html=1;align=center;" parent="1" vertex="1">
          <mxGeometry x="330" y="400" width="100" height="40" as="geometry" />
        </mxCell>
        <mxCell id="JB4vHJLw0HKybT0yfv0A-36" value="descripcion" style="ellipse;whiteSpace=wrap;html=1;align=center;" parent="1" vertex="1">
          <mxGeometry x="450" y="400" width="100" height="40" as="geometry" />
        </mxCell>
        <mxCell id="JB4vHJLw0HKybT0yfv0A-37" value="" style="endArrow=none;html=1;rounded=0;entryX=0.5;entryY=0;entryDx=0;entryDy=0;exitX=1;exitY=1;exitDx=0;exitDy=0;" parent="1" source="JB4vHJLw0HKybT0yfv0A-34" target="Odz1rkMDdroekQYTXGrb-1" edge="1">
          <mxGeometry width="50" height="50" relative="1" as="geometry">
            <mxPoint x="450" y="550" as="sourcePoint" />
            <mxPoint x="440" y="460" as="targetPoint" />
          </mxGeometry>
        </mxCell>
        <mxCell id="JB4vHJLw0HKybT0yfv0A-38" value="" style="endArrow=none;html=1;rounded=0;entryX=0;entryY=1;entryDx=0;entryDy=0;exitX=0.5;exitY=0;exitDx=0;exitDy=0;" parent="1" source="Odz1rkMDdroekQYTXGrb-1" target="JB4vHJLw0HKybT0yfv0A-36" edge="1">
          <mxGeometry width="50" height="50" relative="1" as="geometry">
            <mxPoint x="440" y="460" as="sourcePoint" />
            <mxPoint x="450" y="470" as="targetPoint" />
          </mxGeometry>
        </mxCell>
        <mxCell id="JB4vHJLw0HKybT0yfv0A-39" value="0 , M" style="endArrow=none;html=1;rounded=0;exitX=0.75;exitY=0;exitDx=0;exitDy=0;entryX=0.5;entryY=1;entryDx=0;entryDy=0;edgeStyle=orthogonalEdgeStyle;verticalAlign=bottom;" parent="1" source="JB4vHJLw0HKybT0yfv0A-4" target="JB4vHJLw0HKybT0yfv0A-53" edge="1">
          <mxGeometry x="-0.0909" y="-15" relative="1" as="geometry">
            <mxPoint x="350" y="400" as="sourcePoint" />
            <mxPoint x="275" y="510" as="targetPoint" />
            <mxPoint as="offset" />
          </mxGeometry>
        </mxCell>
        <mxCell id="JB4vHJLw0HKybT0yfv0A-40" value="1 , 1" style="endArrow=none;html=1;rounded=0;exitX=0;exitY=0.5;exitDx=0;exitDy=0;entryX=1;entryY=0.5;entryDx=0;entryDy=0;edgeStyle=orthogonalEdgeStyle;verticalAlign=bottom;" parent="1" source="Odz1rkMDdroekQYTXGrb-1" target="JB4vHJLw0HKybT0yfv0A-53" edge="1">
          <mxGeometry relative="1" as="geometry">
            <mxPoint x="385" y="480" as="sourcePoint" />
            <mxPoint x="330" y="480" as="targetPoint" />
          </mxGeometry>
        </mxCell>
        <mxCell id="JB4vHJLw0HKybT0yfv0A-41" value="&lt;b&gt;&lt;font style=&quot;font-size: 10px;&quot;&gt;pieza compuesta&lt;/font&gt;&lt;/b&gt;" style="text;html=1;align=center;verticalAlign=middle;whiteSpace=wrap;rounded=0;" parent="1" vertex="1">
          <mxGeometry x="140" y="630" width="100" height="30" as="geometry" />
        </mxCell>
        <mxCell id="JB4vHJLw0HKybT0yfv0A-42" value="&lt;b&gt;&lt;font style=&quot;font-size: 10px;&quot;&gt;pieza simple&lt;/font&gt;&lt;/b&gt;" style="text;html=1;align=center;verticalAlign=middle;whiteSpace=wrap;rounded=0;" parent="1" vertex="1">
          <mxGeometry x="180" y="570" width="100" height="30" as="geometry" />
        </mxCell>
        <mxCell id="JB4vHJLw0HKybT0yfv0A-46" value="nombre" style="ellipse;whiteSpace=wrap;html=1;align=center;" parent="1" vertex="1">
          <mxGeometry x="620" y="840" width="100" height="40" as="geometry" />
        </mxCell>
        <mxCell id="JB4vHJLw0HKybT0yfv0A-47" value="" style="endArrow=none;html=1;rounded=0;entryX=0.5;entryY=1;entryDx=0;entryDy=0;exitX=0.5;exitY=0;exitDx=0;exitDy=0;" parent="1" source="JB4vHJLw0HKybT0yfv0A-46" target="JB4vHJLw0HKybT0yfv0A-20" edge="1">
          <mxGeometry width="50" height="50" relative="1" as="geometry">
            <mxPoint x="640" y="740" as="sourcePoint" />
            <mxPoint x="690" y="690" as="targetPoint" />
          </mxGeometry>
        </mxCell>
        <mxCell id="JB4vHJLw0HKybT0yfv0A-49" value="1 , M" style="endArrow=none;html=1;rounded=0;exitX=0.5;exitY=0;exitDx=0;exitDy=0;entryX=0.5;entryY=1;entryDx=0;entryDy=0;" parent="1" source="JB4vHJLw0HKybT0yfv0A-20" target="JB4vHJLw0HKybT0yfv0A-51" edge="1">
          <mxGeometry width="50" height="50" relative="1" as="geometry">
            <mxPoint x="600" y="770" as="sourcePoint" />
            <mxPoint x="610" y="730" as="targetPoint" />
          </mxGeometry>
        </mxCell>
        <mxCell id="JB4vHJLw0HKybT0yfv0A-50" value="1 , 1" style="endArrow=none;html=1;rounded=0;entryX=0.5;entryY=0;entryDx=0;entryDy=0;exitX=0.5;exitY=1;exitDx=0;exitDy=0;" parent="1" source="JB4vHJLw0HKybT0yfv0A-16" target="JB4vHJLw0HKybT0yfv0A-51" edge="1">
          <mxGeometry width="50" height="50" relative="1" as="geometry">
            <mxPoint x="600" y="770" as="sourcePoint" />
            <mxPoint x="610" y="670" as="targetPoint" />
            <Array as="points">
              <mxPoint x="610" y="650" />
            </Array>
          </mxGeometry>
        </mxCell>
        <mxCell id="JB4vHJLw0HKybT0yfv0A-51" value="Tener" style="shape=rhombus;perimeter=rhombusPerimeter;whiteSpace=wrap;html=1;align=center;" parent="1" vertex="1">
          <mxGeometry x="550" y="670" width="120" height="60" as="geometry" />
        </mxCell>
        <mxCell id="JB4vHJLw0HKybT0yfv0A-52" value="&lt;font face=&quot;Courier New&quot;&gt;E&lt;/font&gt;" style="endArrow=none;html=1;rounded=0;exitX=0;exitY=0;exitDx=0;exitDy=0;entryX=1;entryY=0;entryDx=0;entryDy=0;verticalAlign=bottom;fontSize=8;spacing=0;" parent="1" source="JB4vHJLw0HKybT0yfv0A-51" target="JB4vHJLw0HKybT0yfv0A-51" edge="1">
          <mxGeometry width="50" height="50" relative="1" as="geometry">
            <mxPoint x="880" y="870" as="sourcePoint" />
            <mxPoint x="930" y="820" as="targetPoint" />
          </mxGeometry>
        </mxCell>
        <mxCell id="JB4vHJLw0HKybT0yfv0A-53" value="Identificar" style="shape=rhombus;perimeter=rhombusPerimeter;whiteSpace=wrap;html=1;align=center;" parent="1" vertex="1">
          <mxGeometry x="220" y="450" width="110" height="60" as="geometry" />
        </mxCell>
        <mxCell id="JB4vHJLw0HKybT0yfv0A-54" value="&lt;font face=&quot;Courier New&quot;&gt;I&lt;/font&gt;" style="endArrow=none;html=1;rounded=0;exitX=0;exitY=0;exitDx=0;exitDy=0;entryX=1;entryY=0;entryDx=0;entryDy=0;verticalAlign=bottom;fontSize=8;spacing=0;elbow=horizontal;" parent="1" source="JB4vHJLw0HKybT0yfv0A-53" target="JB4vHJLw0HKybT0yfv0A-53" edge="1">
          <mxGeometry width="50" height="50" relative="1" as="geometry">
            <mxPoint x="430" y="650" as="sourcePoint" />
            <mxPoint x="480" y="600" as="targetPoint" />
          </mxGeometry>
        </mxCell>
        <mxCell id="JB4vHJLw0HKybT0yfv0A-55" value="0 porque puede acabarse el stock" style="text;html=1;align=right;verticalAlign=middle;whiteSpace=wrap;rounded=0;" parent="1" vertex="1">
          <mxGeometry x="440" y="730" width="80" height="30" as="geometry" />
        </mxCell>
        <mxCell id="JB4vHJLw0HKybT0yfv0A-57" value="&lt;b&gt;1 : M&lt;/b&gt;&lt;div&gt;&lt;b&gt;obligatoria - obligatoria&lt;/b&gt;&lt;/div&gt;" style="text;html=1;align=left;verticalAlign=middle;whiteSpace=wrap;rounded=0;" parent="1" vertex="1">
          <mxGeometry x="670" y="685" width="150" height="30" as="geometry" />
        </mxCell>
        <mxCell id="JB4vHJLw0HKybT0yfv0A-58" value="&lt;b&gt;M : M&amp;nbsp;&lt;/b&gt;&lt;div style=&quot;&quot;&gt;&lt;b&gt;opcional - opcional&lt;/b&gt;&lt;/div&gt;" style="text;html=1;align=center;verticalAlign=middle;whiteSpace=wrap;rounded=0;" parent="1" vertex="1">
          <mxGeometry x="365" y="580" width="130" height="30" as="geometry" />
        </mxCell>
        <mxCell id="JB4vHJLw0HKybT0yfv0A-59" value="&lt;b style=&quot;font-size: 11px;&quot;&gt;M : M&lt;/b&gt;&lt;div style=&quot;font-size: 11px;&quot;&gt;&lt;div style=&quot;font-size: 11px;&quot;&gt;&lt;b style=&quot;font-size: 11px;&quot;&gt;opcional - obligatoria&lt;/b&gt;&lt;/div&gt;&lt;/div&gt;" style="text;html=1;align=right;verticalAlign=middle;whiteSpace=wrap;rounded=0;fontSize=11;" parent="1" vertex="1">
          <mxGeometry x="40" y="520" width="120" height="30" as="geometry" />
        </mxCell>
        <mxCell id="JB4vHJLw0HKybT0yfv0A-60" value="&lt;b&gt;1 : M&lt;/b&gt;&lt;div&gt;&lt;b&gt;obligatorio - opcional&lt;/b&gt;&lt;/div&gt;" style="text;html=1;align=center;verticalAlign=middle;whiteSpace=wrap;rounded=0;" parent="1" vertex="1">
          <mxGeometry x="210" y="420" width="130" height="30" as="geometry" />
        </mxCell>
        <mxCell id="Odz1rkMDdroekQYTXGrb-1" value="TIPOS PIEZAS" style="shape=ext;margin=3;double=1;whiteSpace=wrap;html=1;align=center;" parent="1" vertex="1">
          <mxGeometry x="380" y="460" width="120" height="40" as="geometry" />
        </mxCell>
      </root>
    </mxGraphModel>
  </diagram>
</mxfile>
